<svg xmlns="http://www.w3.org/2000/svg" viewBox="0 0 248.1 524.06">
    <defs>
        <style>.a200a188-ed38-4447-a30f-b39b259470cd{fill:#fffdf7;}</style>
    </defs>
    <title>Asset 1krubo</title>
    <g id="ec9ebc53-bab6-45cd-baba-8204a7ee01a7" data-name="Layer 2">
        <g id="a0d8cb98-dab4-4a42-9a0f-9383942e70c5" data-name="Layer 1">
            <path id="f0bc62ae-7450-430b-9639-91d0ca07f176" data-name="Triangle" class="a200a188-ed38-4447-a30f-b39b259470cd" d="M248.1,112.83,209.48,77.7a46.17,46.17,0,0,1,1.45,11.53v23.6ZM164.64,57.9a31.34,31.34,0,0,0-31.29,31.33v23.6h62.58V89.23A31.34,31.34,0,0,0,164.64,57.9Zm7.19-14.45L124.05,0,76,43.75a46.28,46.28,0,0,1,48.77,22,46.28,46.28,0,0,1,39.92-22.9A47.35,47.35,0,0,1,171.83,43.45Zm-87,14.45A31.34,31.34,0,0,0,53.5,89.23v23.6h62.58V89.23A31.34,31.34,0,0,0,84.79,57.9ZM38.5,112.83V89.23a46,46,0,0,1,1.9-13.14L0,112.83ZM164.64,57.9a31.34,31.34,0,0,0-31.29,31.33v23.6h62.58V89.23A31.34,31.34,0,0,0,164.64,57.9Zm0,0a31.34,31.34,0,0,0-31.29,31.33v23.6h62.58V89.23A31.34,31.34,0,0,0,164.64,57.9Zm-79.85,0A31.34,31.34,0,0,0,53.5,89.23v23.6h62.58V89.23A31.34,31.34,0,0,0,84.79,57.9Zm0,0A31.34,31.34,0,0,0,53.5,89.23v23.6h62.58V89.23A31.34,31.34,0,0,0,84.79,57.9Z"/>
            <g id="b499d85e-6905-4d7e-a73d-038e0dd58edd" data-name="Text">
                <path class="a200a188-ed38-4447-a30f-b39b259470cd" d="M57.26,140.31H62.6v10.81a18,18,0,0,0,1.25,6.95,15.17,15.17,0,0,0,3.56,5.23,14.82,14.82,0,0,0,5.28,3.33,19.78,19.78,0,0,0,13.18,0,14.41,14.41,0,0,0,5.22-3.33,14,14,0,0,0,3.44-5.23,19,19,0,0,0,1.19-6.95V140.31h5.34v10.22a26,26,0,0,1-1.84,10.22,20.66,20.66,0,0,1-11.69,11.53,21.38,21.38,0,0,1-7.66,1.42h-1.3a21.47,21.47,0,0,1-7.6-1.42,20.67,20.67,0,0,1-6.89-4.34,21.23,21.23,0,0,1-5-7.19,26,26,0,0,1-1.84-10.22Zm0-4.64h43.8v5.83H57.26Zm.23,42.55h43.33V184H57.49Zm0,4.63h5.23v21H57.49Zm19.41,0h5.23v19.2H76.9Zm18.7,0h5.22v20.44H95.6ZM56.43,223a21.52,21.52,0,0,1,1.78-9.21A13.44,13.44,0,0,1,63.13,208a12.89,12.89,0,0,1,7.13-2v5.83a8.5,8.5,0,0,0-3.92,1,8.26,8.26,0,0,0-3.27,3.5,14.63,14.63,0,0,0-1.3,6.72,15.58,15.58,0,0,0,1.13,6.42,8.68,8.68,0,0,0,3,3.68A7.61,7.61,0,0,0,70,234.3,5.25,5.25,0,0,0,74.41,232a13,13,0,0,0,2.2-6.77l.41-4.82a15.34,15.34,0,0,1,3.56-9.21,10.42,10.42,0,0,1,8.13-3.44,12.57,12.57,0,0,1,7,1.9,13.19,13.19,0,0,1,4.63,5.41,17.67,17.67,0,0,1,1.72,8,18.09,18.09,0,0,1-1.66,8,12.63,12.63,0,0,1-11.81,7.31v-5.82a8,8,0,0,0,3.91-1,7.48,7.48,0,0,0,3-3,10.87,10.87,0,0,0,1.19-5.41,11.42,11.42,0,0,0-1.13-5.35,7.81,7.81,0,0,0-3-3.15,7.7,7.7,0,0,0-3.86-1,5.79,5.79,0,0,0-4.21,1.84,8.45,8.45,0,0,0-2.14,5.47L82,225.68a21.65,21.65,0,0,1-1.9,7.67,11.66,11.66,0,0,1-4,5,10,10,0,0,1-6,1.78A12,12,0,0,1,63,238a14,14,0,0,1-4.81-6A21.82,21.82,0,0,1,56.43,223Zm1.06,22.55h43.33v5.82H57.49ZM56.43,279a24.18,24.18,0,0,1,1.66-9.16,20.77,20.77,0,0,1,4.69-7.07,21.44,21.44,0,0,1,7.12-4.51,24.84,24.84,0,0,1,9-1.61h1.31a22.92,22.92,0,0,1,8,1.43,22.46,22.46,0,0,1,7,4.22,19.7,19.7,0,0,1,4.93,6.77,21.12,21.12,0,0,1,1.84,9,21.44,21.44,0,0,1-2.08,9.63,16.95,16.95,0,0,1-14.12,9.75v-5.95a11.17,11.17,0,0,0,6-2.37,11.94,11.94,0,0,0,3.62-4.88,16,16,0,0,0,0-12.41A13.89,13.89,0,0,0,92,266.91a16.17,16.17,0,0,0-5.4-3.14,20.65,20.65,0,0,0-7.07-1.13,23.7,23.7,0,0,0-7.83,1.18,15.84,15.84,0,0,0-5.58,3.45,14.58,14.58,0,0,0-3.32,5.17,18.82,18.82,0,0,0-1.13,6.6,18.58,18.58,0,0,0,2,8.85A14.61,14.61,0,0,0,69,293.71L62,291.57H74.83V297H64.5a19.92,19.92,0,0,1-5.94-7.49A24.63,24.63,0,0,1,56.43,279Zm17.21-1.55h4.87v23.23H73.64Zm-16.15,27.1h43.33v9.51l-38.1,22V338l-1.07-1.19h39.17v5.59H57.49v-9.63l38.11-22v-1.9l1.07,1.19H57.49Zm0,80.64,19.06-17.88a57.84,57.84,0,0,1,5.1-4.28,17,17,0,0,1,4-2.14,13.48,13.48,0,0,1,4.09-.59,13,13,0,0,1,6.41,1.42,9,9,0,0,1,3.8,4.64,21.49,21.49,0,0,1,1.31,8.14c0,1.3-.06,2.77-.18,4.39s-.26,3.07-.42,4.34h-5q.12-1.18.24-3.09c.11-1.27.19-2.51.23-3.74s.12-2.24.12-3c0-2.81-.57-4.8-1.72-5.94a6.68,6.68,0,0,0-4.93-1.67,9.93,9.93,0,0,0-4.8,1.19,27.37,27.37,0,0,0-5,3.86L57.49,392ZM56.43,370.5a17.75,17.75,0,0,1,1.72-8,13.16,13.16,0,0,1,4.69-5.34,11.91,11.91,0,0,1,6.58-1.91h.89a12.49,12.49,0,0,1,7.54,2.38,18.93,18.93,0,0,1,5.34,6l-4,3a10.83,10.83,0,0,0-3.86-4.27,10,10,0,0,0-5.52-1.61A8.1,8.1,0,0,0,65.15,362a8.91,8.91,0,0,0-2.91,3.56,12.68,12.68,0,0,0-1,4.94,11.47,11.47,0,0,0,2.32,7.19,14.74,14.74,0,0,0,6.94,4.63A34.19,34.19,0,0,0,82,384v5.11a42.24,42.24,0,0,1-10.69-1.24,23.72,23.72,0,0,1-8-3.57,16.06,16.06,0,0,1-5.1-5.88A16.93,16.93,0,0,1,56.43,370.5Zm24.81,6.59h4.51v15.57H81.24Zm-24,32.68H62.6v10.82a18,18,0,0,0,1.25,7,15.26,15.26,0,0,0,3.56,5.23,15,15,0,0,0,5.28,3.33,19.78,19.78,0,0,0,13.18,0,14.54,14.54,0,0,0,5.22-3.33,14.08,14.08,0,0,0,3.44-5.23,19,19,0,0,0,1.19-7V409.77h5.34V420a26,26,0,0,1-1.84,10.22,19.85,19.85,0,0,1-4.87,7.19,19.61,19.61,0,0,1-6.82,4.34,21.39,21.39,0,0,1-7.66,1.43h-1.3a21.48,21.48,0,0,1-7.6-1.43,20.36,20.36,0,0,1-6.89-4.34,21.13,21.13,0,0,1-5-7.19A26,26,0,0,1,57.26,420Zm0-4.63h43.8V411H57.26Zm.23,42.55h43.33v5.82H57.49Zm0,4.63h5.23v21H57.49Zm19.41,0h5.23v19.19H76.9Zm18.7,0h5.22v20.44H95.6ZM57.49,488.9l43.33-15v6L61.29,493.36l1.43-2.86v7.13l-1.43-3L100.82,507v5.83l-43.33-14Z"/>
                
                <path class="a200a188-ed38-4447-a30f-b39b259470cd" d="M115.38,187.05l35.86-26.54V149.88l40.92,32.22v19.8l-36.71-29,7.47-.21L115.38,207.9Zm0-50.55h76.78v17.27H115.38Zm0,79.19h77.41V233H115.38Zm0,46.64,33-22.53v18.95l-33,23.59Zm24.61-34h13.57v19a13.66,13.66,0,0,0,1.47,6.53,10.65,10.65,0,0,0,4.31,4.31,13.11,13.11,0,0,0,6.52,1.58,12.53,12.53,0,0,0,6.42-1.58,9.86,9.86,0,0,0,4.31-4.31,12.91,12.91,0,0,0,1.58-6.53v-19h14.62v17.59a42.94,42.94,0,0,1-2.95,16.64,22.87,22.87,0,0,1-8.52,10.84q-5.67,3.8-14.3,3.79h-1.68q-8.52,0-14.2-3.89a23.21,23.21,0,0,1-8.42-10.85A45.17,45.17,0,0,1,140,245.91Zm-26.61,95.79q0-10.85,4-18.43a27.46,27.46,0,0,1,11.57-11.37,37.69,37.69,0,0,1,17.67-3.9h45.55v17.27H146a19.4,19.4,0,0,0-8.83,1.9,13.94,13.94,0,0,0-5.68,5.58,18.55,18.55,0,0,0-2,8.95,18.2,18.2,0,0,0,2,8.95,13.24,13.24,0,0,0,5.68,5.58,19.12,19.12,0,0,0,8.83,1.89h46.18V357.8H146.61a37.69,37.69,0,0,1-17.67-3.89,27.48,27.48,0,0,1-11.57-11.38Q113.38,335.06,113.38,324.11Zm1.47,64.27h13.46v18c0,3.22.84,5.65,2.53,7.26s4.06,2.42,7.15,2.42,5.43-.8,7-2.42,2.52-4,2.52-7.26v-18H158v17.16a46.48,46.48,0,0,1-2,14.22,19.91,19.91,0,0,1-6.21,9.79q-4.31,3.58-11.68,3.58h-1.47A21.38,21.38,0,0,1,124.84,430a20.3,20.3,0,0,1-7.47-9.26,40,40,0,0,1-2.52-15.17Zm0-14.74h77.94v16.85H114.85Zm35.45,14.74h10.3v15.16c0,3.3.85,5.69,2.53,7.16a9.82,9.82,0,0,0,6.73,2.21,10.13,10.13,0,0,0,6.94-2.21c1.68-1.47,2.53-3.86,2.53-7.16V388.38h13.46v14.11q0,13.27-5.57,20.32T171.33,430h-1.58q-7.14,0-11.46-3.68a20,20,0,0,1-6.21-9.8,50,50,0,0,1-1.78-14ZM113.38,483A43.39,43.39,0,0,1,117,464.77,38.54,38.54,0,0,1,126.52,452a42.52,42.52,0,0,1,12.94-7.58A40.61,40.61,0,0,1,152.82,442h2.31a41.06,41.06,0,0,1,14.1,2.52,39.3,39.3,0,0,1,12.73,7.8,37.32,37.32,0,0,1,9,12.84,47.39,47.39,0,0,1,0,35.6,37.32,37.32,0,0,1-9,12.84,40.42,40.42,0,0,1-26.83,10.43h-2.31a39.12,39.12,0,0,1-13.36-2.53A42.72,42.72,0,0,1,126.52,514,38.19,38.19,0,0,1,117,501.1,42.62,42.62,0,0,1,113.38,483Zm16.09,0a24.18,24.18,0,0,0,1.89,9.79,21.28,21.28,0,0,0,5.26,7.48,22.37,22.37,0,0,0,7.79,4.74,28,28,0,0,0,9.46,1.58,27.06,27.06,0,0,0,9.78-1.69,20.9,20.9,0,0,0,7.79-4.74,20.25,20.25,0,0,0,5.15-7.37,27.67,27.67,0,0,0,0-19.58,21.37,21.37,0,0,0-5.15-7.48,21.62,21.62,0,0,0-7.79-4.63,28.67,28.67,0,0,0-9.78-1.58,27.71,27.71,0,0,0-9.46,1.58,22.87,22.87,0,0,0-7.79,4.63,22.63,22.63,0,0,0-5.26,7.48A24.15,24.15,0,0,0,129.47,483Z"/>
            </g>
        </g>
    </g>
</svg>