<svg width="601" height="190" viewBox="0 0 601 190" fill="none" xmlns="http://www.w3.org/2000/svg">
<g clip-path="url(#clip0_21_18)">
<path d="M78.1578 134.083L77.9454 124.78L26.7466 78.0578H17.1866L51.1775 109.77L55.6388 113.364L78.1578 134.083ZM23.1351 155.224L57.1259 112.941L52.0273 107.444L14 155.224H23.1351Z" fill="#E6E6E6"/>
<path d="M83.0441 139.157C82.8316 138.522 82.1943 137.042 82.1943 137.042C79.0076 131.123 79.4325 124.569 79.4325 116.747C79.4325 108.501 80.9196 101.525 84.1063 95.8166C87.2929 89.897 91.7542 85.4573 97.2778 82.2861C102.801 79.1149 108.962 77.635 115.973 77.635C123.408 77.635 129.782 79.3263 135.518 82.7089C141.466 85.8801 145.927 90.5313 149.114 96.4509C152.513 102.37 154.213 109.136 154.213 116.958C154.213 124.569 152.513 131.546 149.114 137.465C145.927 143.385 141.253 148.036 135.518 151.419C129.782 154.59 123.196 156.281 115.973 156.281C108.962 155.858 95.5782 153.956 83.0441 139.157ZM77.0957 133.026L76.7036 45.5H77.9454H83.0441H84.1063V103.005C84.1063 103.005 84.1063 103.005 84.1063 103.216L82.6192 116.535V116.747L83.8938 130.066L84.1063 140.378M115.335 149.304C121.284 149.304 126.595 148.036 131.481 145.288C136.155 142.539 139.979 138.734 142.741 133.66C145.502 128.797 146.989 123.089 146.989 116.535C146.989 109.981 145.502 104.273 142.741 99.6221C139.979 94.7596 136.367 90.9541 131.481 88.2057C126.807 85.4573 121.284 83.9774 115.335 83.9774C109.387 83.9774 104.076 85.4573 99.1897 88.2057C94.516 90.9541 90.9045 94.7596 87.9303 99.6221C85.1685 104.485 83.8938 110.193 83.8938 116.535C83.8938 122.878 85.1685 128.586 87.9303 133.66C90.692 138.522 94.516 142.539 99.1897 145.288C104.076 147.825 109.387 149.304 115.335 149.304Z" fill="#E6E6E6"/>
</g>
<rect x="3" y="24" width="162" height="162" stroke="#E6E6E6" stroke-width="6"/>
<path d="M199.391 172.24V168.04H211.331C214.291 168.04 216.871 167.56 219.071 166.6C221.311 165.64 223.191 164.34 224.711 162.7C226.231 161.02 227.371 159.1 228.131 156.94C228.891 154.78 229.271 152.48 229.271 150.04C229.271 147.52 228.871 145.18 228.071 143.02C227.311 140.86 226.171 138.96 224.651 137.32C223.131 135.68 221.251 134.42 219.011 133.54C216.811 132.66 214.251 132.22 211.331 132.22H199.391V128.02H210.851C214.771 128.02 218.171 128.62 221.051 129.82C223.931 131.02 226.331 132.66 228.251 134.74C230.171 136.78 231.591 139.08 232.511 141.64C233.431 144.2 233.891 146.8 233.891 149.44V150.58C233.891 153.18 233.431 155.76 232.511 158.32C231.591 160.88 230.191 163.22 228.311 165.34C226.431 167.42 224.031 169.1 221.111 170.38C218.231 171.62 214.811 172.24 210.851 172.24H199.391ZM196.031 172.24V128.02H200.591V172.24H196.031ZM255.967 173.02C253.247 173.02 250.887 172.56 248.887 171.64C246.887 170.68 245.247 169.42 243.967 167.86C242.687 166.26 241.727 164.48 241.087 162.52C240.487 160.56 240.187 158.54 240.187 156.46V155.62C240.187 153.58 240.487 151.58 241.087 149.62C241.727 147.66 242.687 145.9 243.967 144.34C245.247 142.78 246.847 141.54 248.767 140.62C250.727 139.66 253.007 139.18 255.607 139.18C258.927 139.18 261.687 139.92 263.887 141.4C266.127 142.88 267.807 144.78 268.927 147.1C270.047 149.38 270.607 151.84 270.607 154.48V156.82H242.227V153.34H267.487L266.347 155.08C266.347 152.72 265.927 150.66 265.087 148.9C264.287 147.1 263.087 145.7 261.487 144.7C259.927 143.66 257.967 143.14 255.607 143.14C253.127 143.14 251.067 143.72 249.427 144.88C247.787 146.04 246.547 147.58 245.707 149.5C244.907 151.42 244.507 153.6 244.507 156.04C244.507 158.44 244.907 160.64 245.707 162.64C246.547 164.6 247.807 166.16 249.487 167.32C251.207 168.48 253.367 169.06 255.967 169.06C258.727 169.06 260.967 168.44 262.687 167.2C264.407 165.92 265.467 164.42 265.867 162.7H270.067C269.667 164.82 268.827 166.66 267.547 168.22C266.267 169.74 264.647 170.92 262.687 171.76C260.727 172.6 258.487 173.02 255.967 173.02ZM289.289 172.9C285.209 172.9 282.069 172.02 279.869 170.26C277.669 168.46 276.549 166.06 276.509 163.06H280.709C280.789 164.58 281.469 165.96 282.749 167.2C284.069 168.44 286.249 169.06 289.289 169.06C292.129 169.06 294.249 168.48 295.649 167.32C297.089 166.12 297.809 164.68 297.809 163C297.809 161.44 297.209 160.24 296.009 159.4C294.849 158.52 293.149 157.96 290.909 157.72L287.309 157.36C284.429 157.04 282.089 156.16 280.289 154.72C278.529 153.24 277.649 151.22 277.649 148.66C277.649 146.78 278.129 145.14 279.089 143.74C280.049 142.34 281.389 141.26 283.109 140.5C284.869 139.7 286.929 139.3 289.289 139.3C292.689 139.3 295.449 140.1 297.569 141.7C299.729 143.3 300.829 145.58 300.869 148.54H296.669C296.629 147.02 295.989 145.74 294.749 144.7C293.509 143.66 291.689 143.14 289.289 143.14C286.809 143.14 284.949 143.68 283.709 144.76C282.509 145.84 281.909 147.16 281.909 148.72C281.909 150.04 282.369 151.14 283.289 152.02C284.209 152.86 285.649 153.38 287.609 153.58L291.209 153.94C294.409 154.3 297.009 155.22 299.009 156.7C301.049 158.18 302.069 160.3 302.069 163.06C302.069 164.94 301.529 166.64 300.449 168.16C299.409 169.64 297.929 170.8 296.009 171.64C294.089 172.48 291.849 172.9 289.289 172.9ZM312.707 172V140.26H317.147V172H312.707ZM307.607 143.86V140.26H317.147V143.86H307.607ZM313.667 134.38C312.587 134.38 311.767 134.1 311.207 133.54C310.687 132.94 310.427 132.2 310.427 131.32C310.427 130.44 310.687 129.72 311.207 129.16C311.767 128.56 312.587 128.26 313.667 128.26C314.747 128.26 315.547 128.56 316.067 129.16C316.587 129.72 316.847 130.44 316.847 131.32C316.847 132.2 316.587 132.94 316.067 133.54C315.547 134.1 314.747 134.38 313.667 134.38ZM341.077 184.42C339.597 184.42 338.097 184.34 336.577 184.18C335.097 184.06 333.677 183.9 332.317 183.7V179.86C333.757 180.06 335.257 180.22 336.817 180.34C338.417 180.5 339.917 180.58 341.317 180.58C344.357 180.58 346.777 180.18 348.577 179.38C350.377 178.58 351.657 177.3 352.417 175.54C353.217 173.82 353.617 171.54 353.617 168.7V162.34L355.297 157.9C355.217 160.94 354.577 163.56 353.377 165.76C352.177 167.92 350.557 169.58 348.517 170.74C346.477 171.9 344.157 172.48 341.557 172.48C339.277 172.48 337.197 172.04 335.317 171.16C333.477 170.28 331.897 169.08 330.577 167.56C329.257 166 328.237 164.24 327.517 162.28C326.797 160.32 326.437 158.26 326.437 156.1V155.26C326.437 153.14 326.797 151.12 327.517 149.2C328.237 147.24 329.257 145.52 330.577 144.04C331.897 142.52 333.497 141.34 335.377 140.5C337.297 139.62 339.417 139.18 341.737 139.18C344.537 139.18 346.977 139.8 349.057 141.04C351.137 142.28 352.757 144 353.917 146.2C355.117 148.4 355.757 150.98 355.837 153.94L354.397 153.16V140.26H357.937V168.52C357.937 172.32 357.377 175.38 356.257 177.7C355.137 180.02 353.337 181.72 350.857 182.8C348.417 183.88 345.157 184.42 341.077 184.42ZM342.337 168.34C344.497 168.34 346.417 167.88 348.097 166.96C349.817 166 351.177 164.66 352.177 162.94C353.177 161.22 353.677 159.22 353.677 156.94V154C353.677 151.8 353.157 149.88 352.117 148.24C351.117 146.6 349.777 145.32 348.097 144.4C346.417 143.48 344.497 143.02 342.337 143.02C340.017 143.02 337.997 143.58 336.277 144.7C334.557 145.82 333.237 147.34 332.317 149.26C331.397 151.14 330.937 153.28 330.937 155.68C330.937 158.12 331.397 160.3 332.317 162.22C333.277 164.14 334.617 165.64 336.337 166.72C338.057 167.8 340.057 168.34 342.337 168.34ZM369.211 172V140.26H372.811V153.58H372.091C372.091 150.62 372.531 148.08 373.411 145.96C374.291 143.84 375.611 142.2 377.371 141.04C379.131 139.88 381.351 139.3 384.031 139.3H384.211C388.211 139.3 391.191 140.56 393.151 143.08C395.111 145.56 396.091 149.06 396.091 153.58V172H391.651V152.62C391.651 149.86 390.891 147.64 389.371 145.96C387.851 144.28 385.731 143.44 383.011 143.44C380.211 143.44 377.951 144.32 376.231 146.08C374.551 147.8 373.711 150.08 373.711 152.92V172H369.211ZM447.94 172L429.4 152.32C427.68 150.44 426.3 148.8 425.26 147.4C424.26 146 423.54 144.66 423.1 143.38C422.66 142.06 422.44 140.64 422.44 139.12C422.44 136.64 422.9 134.56 423.82 132.88C424.78 131.2 426.28 129.94 428.32 129.1C430.36 128.22 433 127.78 436.24 127.78C437.64 127.78 439.14 127.84 440.74 127.96C442.34 128.08 443.84 128.22 445.24 128.38V132.34C444.36 132.26 443.3 132.18 442.06 132.1C440.86 131.98 439.66 131.9 438.46 131.86C437.3 131.78 436.28 131.74 435.4 131.74C432.28 131.74 430.06 132.38 428.74 133.66C427.42 134.94 426.76 136.78 426.76 139.18C426.76 141.1 427.2 142.84 428.08 144.4C428.96 145.92 430.34 147.68 432.22 149.68L453.22 172H447.94ZM432.52 173.02C429.64 173.02 427.08 172.48 424.84 171.4C422.6 170.28 420.84 168.76 419.56 166.84C418.28 164.88 417.64 162.66 417.64 160.18V159.46C417.64 156.58 418.44 154.04 420.04 151.84C421.68 149.6 423.7 147.82 426.1 146.5L428.38 149.68C426.46 150.64 424.9 152.04 423.7 153.88C422.54 155.68 421.96 157.66 421.96 159.82C421.96 161.86 422.44 163.58 423.4 164.98C424.4 166.34 425.7 167.38 427.3 168.1C428.9 168.82 430.64 169.18 432.52 169.18C435.52 169.18 438.06 168.34 440.14 166.66C442.22 164.94 443.8 162.46 444.88 159.22C445.96 155.94 446.5 151.94 446.5 147.22H450.52C450.52 151.18 450.14 154.76 449.38 157.96C448.62 161.12 447.48 163.82 445.96 166.06C444.44 168.3 442.54 170.02 440.26 171.22C438.02 172.42 435.44 173.02 432.52 173.02ZM439.06 147.88V144.28H454.24V147.88H439.06ZM480.173 172.24V168.04H492.113C495.073 168.04 497.653 167.56 499.853 166.6C502.093 165.64 503.973 164.34 505.493 162.7C507.013 161.02 508.153 159.1 508.913 156.94C509.673 154.78 510.053 152.48 510.053 150.04C510.053 147.52 509.653 145.18 508.853 143.02C508.093 140.86 506.953 138.96 505.433 137.32C503.913 135.68 502.033 134.42 499.793 133.54C497.593 132.66 495.033 132.22 492.113 132.22H480.173V128.02H491.633C495.553 128.02 498.953 128.62 501.833 129.82C504.713 131.02 507.113 132.66 509.033 134.74C510.953 136.78 512.373 139.08 513.293 141.64C514.213 144.2 514.673 146.8 514.673 149.44V150.58C514.673 153.18 514.213 155.76 513.293 158.32C512.373 160.88 510.973 163.22 509.093 165.34C507.213 167.42 504.813 169.1 501.893 170.38C499.013 171.62 495.593 172.24 491.633 172.24H480.173ZM476.813 172.24V128.02H481.373V172.24H476.813ZM536.748 173.02C534.028 173.02 531.668 172.56 529.668 171.64C527.668 170.68 526.028 169.42 524.748 167.86C523.468 166.26 522.508 164.48 521.868 162.52C521.268 160.56 520.968 158.54 520.968 156.46V155.62C520.968 153.58 521.268 151.58 521.868 149.62C522.508 147.66 523.468 145.9 524.748 144.34C526.028 142.78 527.628 141.54 529.548 140.62C531.508 139.66 533.788 139.18 536.388 139.18C539.708 139.18 542.468 139.92 544.668 141.4C546.908 142.88 548.588 144.78 549.708 147.1C550.828 149.38 551.388 151.84 551.388 154.48V156.82H523.008V153.34H548.268L547.128 155.08C547.128 152.72 546.708 150.66 545.868 148.9C545.068 147.1 543.868 145.7 542.268 144.7C540.708 143.66 538.748 143.14 536.388 143.14C533.908 143.14 531.848 143.72 530.208 144.88C528.568 146.04 527.328 147.58 526.488 149.5C525.688 151.42 525.288 153.6 525.288 156.04C525.288 158.44 525.688 160.64 526.488 162.64C527.328 164.6 528.588 166.16 530.268 167.32C531.988 168.48 534.148 169.06 536.748 169.06C539.508 169.06 541.748 168.44 543.468 167.2C545.188 165.92 546.248 164.42 546.648 162.7H550.848C550.448 164.82 549.608 166.66 548.328 168.22C547.048 169.74 545.428 170.92 543.468 171.76C541.508 172.6 539.268 173.02 536.748 173.02ZM566.896 172L555.736 140.26H560.356L571.396 172H566.896ZM568.096 172V168.34H573.796V172H568.096ZM570.556 172L580.216 140.26H584.656L574.816 172H570.556Z" fill="#E6E6E6"/>
<path d="M252.948 116L214.788 74.6H203.508L244.668 28.4H255.228L217.308 70.76L216.468 64.16L264.348 116H252.948ZM197.868 116V28.4H206.988V116H197.868ZM270.852 116V28.04H279.972V116H270.852ZM325.212 116L295.332 77.24H306.012L336.372 116H325.212ZM276.252 82.76V74.6H299.772C304.092 74.6 307.692 73.76 310.572 72.08C313.452 70.4 315.612 68.12 317.052 65.24C318.492 62.36 319.212 59.08 319.212 55.4C319.212 51.72 318.492 48.44 317.052 45.56C315.612 42.68 313.452 40.4 310.572 38.72C307.692 36.96 304.092 36.08 299.772 36.08H276.252V28.04H298.212C304.692 28.04 310.172 29.08 314.652 31.16C319.212 33.16 322.652 36.16 324.972 40.16C327.372 44.08 328.572 48.88 328.572 54.56V56.24C328.572 61.92 327.372 66.76 324.972 70.76C322.572 74.68 319.132 77.68 314.652 79.76C310.172 81.76 304.692 82.76 298.212 82.76H276.252ZM380.963 118.04C372.963 118.04 366.323 116.52 361.043 113.48C355.763 110.44 351.803 106.2 349.163 100.76C346.523 95.24 345.203 88.92 345.203 81.8V28.4H354.323V82.88C354.323 88.24 355.283 92.92 357.203 96.92C359.203 100.92 362.163 104.04 366.083 106.28C370.083 108.52 375.043 109.64 380.963 109.64C386.803 109.64 391.683 108.56 395.603 106.4C399.523 104.16 402.483 101.04 404.483 97.04C406.483 92.96 407.483 88.24 407.483 82.88V28.4H416.603V81.8C416.603 88.92 415.283 95.24 412.643 100.76C410.003 106.2 406.043 110.44 400.763 113.48C395.563 116.52 388.963 118.04 380.963 118.04ZM443.114 116.36V108.32H468.794C473.994 108.32 478.034 106.84 480.914 103.88C483.874 100.84 485.354 96.84 485.354 91.88C485.354 87 483.914 83.08 481.034 80.12C478.154 77.08 474.074 75.56 468.794 75.56H443.114V69.56H467.474C472.754 69.56 477.434 70.32 481.514 71.84C485.594 73.28 488.794 75.6 491.114 78.8C493.434 82 494.594 86.2 494.594 91.4V92.84C494.594 97.56 493.594 101.72 491.594 105.32C489.594 108.84 486.594 111.56 482.594 113.48C478.594 115.4 473.554 116.36 467.474 116.36H443.114ZM436.274 116.36V28.04H445.394V116.36H436.274ZM443.114 73.88V67.88H465.554C471.074 67.88 475.154 66.4 477.794 63.44C480.434 60.4 481.754 56.6 481.754 52.04C481.754 47.32 480.434 43.48 477.794 40.52C475.154 37.56 471.074 36.08 465.554 36.08H443.114V28.04H463.994C473.034 28.04 479.794 30.08 484.274 34.16C488.754 38.24 490.994 43.88 490.994 51.08V52.52C490.994 57.56 489.874 61.68 487.634 64.88C485.394 68 482.234 70.28 478.154 71.72C474.154 73.16 469.434 73.88 463.994 73.88H443.114ZM548.83 118.04C541.23 118.04 534.63 116.68 529.03 113.96C523.43 111.24 518.79 107.64 515.11 103.16C511.43 98.68 508.67 93.8 506.83 88.52C504.99 83.24 504.07 78.08 504.07 73.04V70.88C504.07 65.52 504.99 60.2 506.83 54.92C508.75 49.56 511.59 44.72 515.35 40.4C519.11 36.08 523.79 32.64 529.39 30.08C534.99 27.44 541.47 26.12 548.83 26.12C556.27 26.12 562.75 27.44 568.27 30.08C573.87 32.64 578.55 36.08 582.31 40.4C586.07 44.72 588.87 49.56 590.71 54.92C592.63 60.2 593.59 65.52 593.59 70.88V73.16C593.59 78.2 592.67 83.36 590.83 88.64C589.07 93.84 586.31 98.68 582.55 103.16C578.87 107.64 574.23 111.24 568.63 113.96C563.03 116.68 556.43 118.04 548.83 118.04ZM548.83 109.64C554.43 109.64 559.43 108.64 563.83 106.64C568.23 104.56 571.95 101.76 574.99 98.24C578.03 94.64 580.35 90.6 581.95 86.12C583.55 81.64 584.35 76.96 584.35 72.08C584.35 66.96 583.55 62.16 581.95 57.68C580.35 53.2 577.99 49.24 574.87 45.8C571.83 42.28 568.11 39.52 563.71 37.52C559.31 35.52 554.35 34.52 548.83 34.52C543.39 34.52 538.47 35.52 534.07 37.52C529.67 39.52 525.91 42.28 522.79 45.8C519.75 49.24 517.39 53.2 515.71 57.68C514.11 62.16 513.31 66.96 513.31 72.08C513.31 76.96 514.11 81.64 515.71 86.12C517.31 90.6 519.63 94.64 522.67 98.24C525.71 101.76 529.43 104.56 533.83 106.64C538.31 108.64 543.31 109.64 548.83 109.64Z" fill="#E6E6E6"/>
<defs>
<clipPath id="clip0_21_18">
<rect width="140" height="110.358" fill="white" transform="translate(14 45.5)"/>
</clipPath>
</defs>
</svg>
